<svg xmlns="http://www.w3.org/2000/svg" viewBox="0 0 24 24" width="32" height="32">
  <!-- Helvex mark: 7×7 diamond grid with cross-shaped gap (evokes Swiss flag) -->
  <!-- Positions: 7 evenly-spaced centres across 24px viewBox -->
  <!-- Cross cells omitted: (row,col) = (3,2),(3,3),(3,4),(2,3),(4,3) -->
  <path fill="#2563eb" d="
    M 1.7 0.4 L 3.0 1.7 L 1.7 3.0 L 0.4 1.7 Z
    M 5.1 0.4 L 6.4 1.7 L 5.1 3.0 L 3.8 1.7 Z
    M 8.6 0.4 L 9.9 1.7 L 8.6 3.0 L 7.3 1.7 Z
    M 12.0 0.4 L 13.3 1.7 L 12.0 3.0 L 10.7 1.7 Z
    M 15.4 0.4 L 16.7 1.7 L 15.4 3.0 L 14.1 1.7 Z
    M 18.9 0.4 L 20.2 1.7 L 18.9 3.0 L 17.6 1.7 Z
    M 22.3 0.4 L 23.6 1.7 L 22.3 3.0 L 21.0 1.7 Z
    M 1.7 3.8 L 3.0 5.1 L 1.7 6.4 L 0.4 5.1 Z
    M 5.1 3.8 L 6.4 5.1 L 5.1 6.4 L 3.8 5.1 Z
    M 8.6 3.8 L 9.9 5.1 L 8.6 6.4 L 7.3 5.1 Z
    M 12.0 3.8 L 13.3 5.1 L 12.0 6.4 L 10.7 5.1 Z
    M 15.4 3.8 L 16.7 5.1 L 15.4 6.4 L 14.1 5.1 Z
    M 18.9 3.8 L 20.2 5.1 L 18.9 6.4 L 17.6 5.1 Z
    M 22.3 3.8 L 23.6 5.1 L 22.3 6.4 L 21.0 5.1 Z
    M 1.7 7.3 L 3.0 8.6 L 1.7 9.9 L 0.4 8.6 Z
    M 5.1 7.3 L 6.4 8.6 L 5.1 9.9 L 3.8 8.6 Z
    M 8.6 7.3 L 9.9 8.6 L 8.6 9.9 L 7.3 8.6 Z
    M 15.4 7.3 L 16.7 8.6 L 15.4 9.9 L 14.1 8.6 Z
    M 18.9 7.3 L 20.2 8.6 L 18.9 9.9 L 17.6 8.6 Z
    M 22.3 7.3 L 23.6 8.6 L 22.3 9.9 L 21.0 8.6 Z
    M 1.7 10.7 L 3.0 12.0 L 1.7 13.3 L 0.4 12.0 Z
    M 5.1 10.7 L 6.4 12.0 L 5.1 13.3 L 3.8 12.0 Z
    M 18.9 10.7 L 20.2 12.0 L 18.9 13.3 L 17.6 12.0 Z
    M 22.3 10.7 L 23.6 12.0 L 22.3 13.3 L 21.0 12.0 Z
    M 1.7 14.1 L 3.0 15.4 L 1.7 16.7 L 0.4 15.4 Z
    M 5.1 14.1 L 6.4 15.4 L 5.1 16.7 L 3.8 15.4 Z
    M 8.6 14.1 L 9.9 15.4 L 8.6 16.7 L 7.3 15.4 Z
    M 15.4 14.1 L 16.7 15.4 L 15.4 16.7 L 14.1 15.4 Z
    M 18.9 14.1 L 20.2 15.4 L 18.9 16.7 L 17.6 15.4 Z
    M 22.3 14.1 L 23.6 15.4 L 22.3 16.7 L 21.0 15.4 Z
    M 1.7 17.6 L 3.0 18.9 L 1.7 20.2 L 0.4 18.9 Z
    M 5.1 17.6 L 6.4 18.9 L 5.1 20.2 L 3.8 18.9 Z
    M 8.6 17.6 L 9.9 18.9 L 8.6 20.2 L 7.3 18.9 Z
    M 12.0 17.6 L 13.3 18.9 L 12.0 20.2 L 10.7 18.9 Z
    M 15.4 17.6 L 16.7 18.9 L 15.4 20.2 L 14.1 18.9 Z
    M 18.9 17.6 L 20.2 18.9 L 18.9 20.2 L 17.6 18.9 Z
    M 22.3 17.6 L 23.6 18.9 L 22.3 20.2 L 21.0 18.9 Z
    M 1.7 21.0 L 3.0 22.3 L 1.7 23.6 L 0.4 22.3 Z
    M 5.1 21.0 L 6.4 22.3 L 5.1 23.6 L 3.8 22.3 Z
    M 8.6 21.0 L 9.9 22.3 L 8.6 23.6 L 7.3 22.3 Z
    M 12.0 21.0 L 13.3 22.3 L 12.0 23.6 L 10.7 22.3 Z
    M 15.4 21.0 L 16.7 22.3 L 15.4 23.6 L 14.1 22.3 Z
    M 18.9 21.0 L 20.2 22.3 L 18.9 23.6 L 17.6 22.3 Z
    M 22.3 21.0 L 23.6 22.3 L 22.3 23.6 L 21.0 22.3 Z
  "/>
</svg>
